<svg width="559" height="155" viewBox="0 0 559 155" fill="none" xmlns="http://www.w3.org/2000/svg">
<path d="M184.912 122.792C176.037 122.792 168.571 120.829 162.512 116.904C156.453 112.893 152.187 107.475 149.712 100.648L164.816 91.816C168.315 100.947 175.184 105.512 185.424 105.512C190.373 105.512 194 104.616 196.304 102.824C198.608 101.032 199.76 98.7707 199.76 96.04C199.76 92.8827 198.352 90.4507 195.536 88.744C192.72 86.952 187.685 85.032 180.432 82.984C176.421 81.7893 173.008 80.5947 170.192 79.4C167.461 78.2053 164.688 76.6267 161.872 74.664C159.141 72.616 157.051 70.056 155.6 66.984C154.149 63.912 153.424 60.328 153.424 56.232C153.424 48.1253 156.283 41.6827 162 36.904C167.803 32.04 174.757 29.608 182.864 29.608C190.117 29.608 196.475 31.4 201.936 34.984C207.483 38.4827 211.792 43.3893 214.864 49.704L200.016 58.28C196.432 50.6 190.715 46.76 182.864 46.76C179.195 46.76 176.293 47.6133 174.16 49.32C172.112 50.9413 171.088 53.0747 171.088 55.72C171.088 58.536 172.24 60.84 174.544 62.632C176.933 64.3387 181.456 66.216 188.112 68.264C190.843 69.1173 192.891 69.8 194.256 70.312C195.707 70.7387 197.627 71.464 200.016 72.488C202.491 73.4267 204.368 74.3227 205.648 75.176C207.013 76.0293 208.549 77.1813 210.256 78.632C211.963 80.0827 213.243 81.576 214.096 83.112C215.035 84.648 215.803 86.5253 216.4 88.744C217.083 90.8773 217.424 93.224 217.424 95.784C217.424 104.061 214.395 110.632 208.336 115.496C202.363 120.36 194.555 122.792 184.912 122.792ZM284.455 113.064C277.884 119.549 269.863 122.792 260.391 122.792C250.919 122.792 242.898 119.549 236.327 113.064C229.842 106.493 226.599 98.472 226.599 89C226.599 79.528 229.842 71.5493 236.327 65.064C242.898 58.4933 250.919 55.208 260.391 55.208C269.863 55.208 277.884 58.4933 284.455 65.064C291.026 71.5493 294.311 79.528 294.311 89C294.311 98.472 291.026 106.493 284.455 113.064ZM247.975 101.672C251.303 105 255.442 106.664 260.391 106.664C265.34 106.664 269.479 105 272.807 101.672C276.135 98.344 277.799 94.12 277.799 89C277.799 83.88 276.135 79.656 272.807 76.328C269.479 73 265.34 71.336 260.391 71.336C255.442 71.336 251.303 73 247.975 76.328C244.732 79.656 243.111 83.88 243.111 89C243.111 94.12 244.732 98.344 247.975 101.672ZM341.511 55.208C348.508 55.208 354.268 57.5547 358.791 62.248C363.399 66.9413 365.703 73.4267 365.703 81.704V121H349.191V83.752C349.191 79.4853 348.039 76.2427 345.735 74.024C343.431 71.72 340.359 70.568 336.519 70.568C332.252 70.568 328.839 71.8907 326.279 74.536C323.719 77.1813 322.439 81.1493 322.439 86.44V121H305.927V57H322.439V64.168C326.45 58.1947 332.807 55.208 341.511 55.208ZM428.826 57H444.954V117.928C444.954 127.827 441.669 135.379 435.098 140.584C428.613 145.789 420.762 148.392 411.546 148.392C404.634 148.392 398.533 147.069 393.242 144.424C388.037 141.779 384.026 137.896 381.21 132.776L395.29 124.712C398.533 130.685 404.122 133.672 412.058 133.672C417.263 133.672 421.359 132.307 424.346 129.576C427.333 126.845 428.826 122.963 428.826 117.928V111.016C423.962 117.501 417.135 120.744 408.346 120.744C399.301 120.744 391.706 117.587 385.562 111.272C379.503 104.872 376.474 97.1067 376.474 87.976C376.474 78.9307 379.546 71.208 385.69 64.808C391.834 58.408 399.386 55.208 408.346 55.208C417.135 55.208 423.962 58.4507 428.826 64.936V57ZM397.978 100.648C401.391 103.891 405.701 105.512 410.906 105.512C416.111 105.512 420.378 103.891 423.706 100.648C427.119 97.32 428.826 93.096 428.826 87.976C428.826 82.9413 427.119 78.8027 423.706 75.56C420.378 72.232 416.111 70.568 410.906 70.568C405.701 70.568 401.391 72.232 397.978 75.56C394.65 78.8027 392.986 82.9413 392.986 87.976C392.986 93.096 394.65 97.32 397.978 100.648ZM459.927 121V27.56H476.439V121H459.927ZM505.504 95.784C507.723 103.805 513.739 107.816 523.552 107.816C529.867 107.816 534.645 105.683 537.888 101.416L551.2 109.096C544.885 118.227 535.584 122.792 523.296 122.792C512.715 122.792 504.224 119.592 497.824 113.192C491.424 106.792 488.224 98.728 488.224 89C488.224 79.3573 491.381 71.336 497.696 64.936C504.011 58.4507 512.117 55.208 522.016 55.208C531.403 55.208 539.125 58.4507 545.184 64.936C551.328 71.4213 554.4 79.4427 554.4 89C554.4 91.1333 554.187 93.3947 553.76 95.784H505.504ZM505.248 82.984H537.888C536.949 78.632 534.987 75.3893 532 73.256C529.099 71.1227 525.771 70.056 522.016 70.056C517.579 70.056 513.909 71.208 511.008 73.512C508.107 75.7307 506.187 78.888 505.248 82.984Z" fill="white"/>
<rect x="3" y="16" width="122" height="122" rx="7" stroke="white" stroke-width="6"/>
<path d="M64 31C38.5954 31 18 51.5948 18 76.9992C18 102.406 38.5954 123 64 123C89.4057 123 110 102.406 110 76.9992C110 51.5964 89.4068 31.0022 63.9994 31.0022L64 31ZM85.0953 97.344C84.2692 98.6991 82.5037 99.1237 81.153 98.2981C70.351 91.6961 56.7547 90.2048 40.7426 93.8626C39.1996 94.2163 37.6616 93.249 37.3101 91.7066C36.9569 90.1636 37.9198 88.6256 39.4666 88.274C56.9893 84.268 72.0198 85.9923 84.1445 93.4012C85.4957 94.2306 85.9242 95.9939 85.0947 97.3451L85.0953 97.344ZM90.7256 84.8206C89.6852 86.5086 87.4781 87.0381 85.7924 86.0016C73.4304 78.4026 54.58 76.2016 39.9549 80.641C38.0582 81.2139 36.0549 80.145 35.4792 78.2516C34.908 76.3549 35.9775 74.3554 37.8709 73.7786C54.5768 68.7098 75.3447 71.1651 89.544 79.8907C91.2304 80.9289 91.7632 83.137 90.725 84.8212L90.7256 84.8206ZM91.209 71.7781C76.3812 62.9723 51.923 62.1627 37.7681 66.4587C35.4952 67.1481 33.0914 65.8649 32.4026 63.5919C31.7138 61.3179 32.9958 58.9158 35.2705 58.2248C51.5193 53.2921 78.5312 54.2451 95.6001 64.378C97.6446 65.5914 98.3153 68.2318 97.1035 70.2736C95.895 72.3181 93.2474 72.992 91.2095 71.7781H91.209Z" fill="white"/>
</svg>
