<svg width="754" height="155" viewBox="0 0 754 155" fill="none" xmlns="http://www.w3.org/2000/svg">
<path d="M184.912 122.792C176.037 122.792 168.571 120.829 162.512 116.904C156.453 112.893 152.187 107.475 149.712 100.648L164.816 91.816C168.315 100.947 175.184 105.512 185.424 105.512C190.373 105.512 194 104.616 196.304 102.824C198.608 101.032 199.76 98.7707 199.76 96.04C199.76 92.8827 198.352 90.4507 195.536 88.744C192.72 86.952 187.685 85.032 180.432 82.984C176.421 81.7893 173.008 80.5947 170.192 79.4C167.461 78.2053 164.688 76.6267 161.872 74.664C159.141 72.616 157.051 70.056 155.6 66.984C154.149 63.912 153.424 60.328 153.424 56.232C153.424 48.1253 156.283 41.6827 162 36.904C167.803 32.04 174.757 29.608 182.864 29.608C190.117 29.608 196.475 31.4 201.936 34.984C207.483 38.4827 211.792 43.3893 214.864 49.704L200.016 58.28C196.432 50.6 190.715 46.76 182.864 46.76C179.195 46.76 176.293 47.6133 174.16 49.32C172.112 50.9413 171.088 53.0747 171.088 55.72C171.088 58.536 172.24 60.84 174.544 62.632C176.933 64.3387 181.456 66.216 188.112 68.264C190.843 69.1173 192.891 69.8 194.256 70.312C195.707 70.7387 197.627 71.464 200.016 72.488C202.491 73.4267 204.368 74.3227 205.648 75.176C207.013 76.0293 208.549 77.1813 210.256 78.632C211.963 80.0827 213.243 81.576 214.096 83.112C215.035 84.648 215.803 86.5253 216.4 88.744C217.083 90.8773 217.424 93.224 217.424 95.784C217.424 104.061 214.395 110.632 208.336 115.496C202.363 120.36 194.555 122.792 184.912 122.792ZM265.425 55.208C274.044 55.208 281.382 58.4933 287.441 65.064C293.585 71.5493 296.657 79.528 296.657 89C296.657 98.472 293.585 106.493 287.441 113.064C281.382 119.549 274.044 122.792 265.425 122.792C256.465 122.792 249.553 119.677 244.689 113.448V146.6H228.177V57H244.689V64.552C249.553 58.3227 256.465 55.208 265.425 55.208ZM249.681 102.056C253.009 105.384 257.233 107.048 262.353 107.048C267.473 107.048 271.697 105.384 275.025 102.056C278.438 98.6427 280.145 94.2907 280.145 89C280.145 83.7093 278.438 79.4 275.025 76.072C271.697 72.6587 267.473 70.952 262.353 70.952C257.233 70.952 253.009 72.6587 249.681 76.072C246.353 79.4 244.689 83.7093 244.689 89C244.689 94.2907 246.353 98.6427 249.681 102.056ZM362.83 113.064C356.259 119.549 348.238 122.792 338.766 122.792C329.294 122.792 321.273 119.549 314.702 113.064C308.217 106.493 304.974 98.472 304.974 89C304.974 79.528 308.217 71.5493 314.702 65.064C321.273 58.4933 329.294 55.208 338.766 55.208C348.238 55.208 356.259 58.4933 362.83 65.064C369.401 71.5493 372.686 79.528 372.686 89C372.686 98.472 369.401 106.493 362.83 113.064ZM326.35 101.672C329.678 105 333.817 106.664 338.766 106.664C343.715 106.664 347.854 105 351.182 101.672C354.51 98.344 356.174 94.12 356.174 89C356.174 83.88 354.51 79.656 351.182 76.328C347.854 73 343.715 71.336 338.766 71.336C333.817 71.336 329.678 73 326.35 76.328C323.107 79.656 321.486 83.88 321.486 89C321.486 94.12 323.107 98.344 326.35 101.672ZM419.535 72.872H405.071V99.496C405.071 101.715 405.626 103.336 406.735 104.36C407.844 105.384 409.466 105.981 411.599 106.152C413.732 106.237 416.378 106.195 419.535 106.024V121C408.186 122.28 400.164 121.213 395.471 117.8C390.863 114.387 388.559 108.285 388.559 99.496V72.872H377.423V57H388.559V44.072L405.071 39.08V57H419.535V72.872ZM439.369 49.32C436.638 49.32 434.249 48.3387 432.201 46.376C430.238 44.328 429.257 41.9387 429.257 39.208C429.257 36.4773 430.238 34.088 432.201 32.04C434.249 29.992 436.638 28.968 439.369 28.968C442.185 28.968 444.574 29.992 446.537 32.04C448.585 34.088 449.609 36.4773 449.609 39.208C449.609 41.9387 448.585 44.328 446.537 46.376C444.574 48.3387 442.185 49.32 439.369 49.32ZM431.177 121V57H447.689V121H431.177ZM497.234 45.48C488.189 44.7973 483.666 48.424 483.666 56.36V57H497.234V72.872H483.666V121H467.154V72.872H457.938V57H467.154V56.36C467.154 47.3147 469.671 40.4453 474.706 35.752C479.741 31.0587 487.25 29.0107 497.234 29.608V45.48ZM549.03 57H566.694L543.398 121C540.07 130.216 535.633 136.872 530.086 140.968C524.625 145.149 517.798 147.027 509.606 146.6V131.24C514.043 131.325 517.542 130.387 520.102 128.424C522.747 126.461 524.838 123.304 526.374 118.952L500.134 57H518.182L534.822 100.008L549.03 57ZM611.8 55.208C620.419 55.208 627.757 58.4933 633.816 65.064C639.96 71.5493 643.032 79.528 643.032 89C643.032 98.472 639.96 106.493 633.816 113.064C627.757 119.549 620.419 122.792 611.8 122.792C602.84 122.792 595.928 119.677 591.064 113.448V121H574.552V31.4H591.064V64.552C595.928 58.3227 602.84 55.208 611.8 55.208ZM596.056 102.056C599.384 105.384 603.608 107.048 608.728 107.048C613.848 107.048 618.072 105.384 621.4 102.056C624.813 98.6427 626.52 94.2907 626.52 89C626.52 83.7093 624.813 79.4 621.4 76.072C618.072 72.6587 613.848 70.952 608.728 70.952C603.608 70.952 599.384 72.6587 596.056 76.072C592.728 79.4 591.064 83.7093 591.064 89C591.064 94.2907 592.728 98.6427 596.056 102.056ZM654.677 121V27.56H671.189V121H654.677ZM700.254 95.784C702.473 103.805 708.489 107.816 718.302 107.816C724.617 107.816 729.395 105.683 732.638 101.416L745.95 109.096C739.635 118.227 730.334 122.792 718.046 122.792C707.465 122.792 698.974 119.592 692.574 113.192C686.174 106.792 682.974 98.728 682.974 89C682.974 79.3573 686.131 71.336 692.446 64.936C698.761 58.4507 706.867 55.208 716.766 55.208C726.153 55.208 733.875 58.4507 739.934 64.936C746.078 71.4213 749.15 79.4427 749.15 89C749.15 91.1333 748.937 93.3947 748.51 95.784H700.254ZM699.998 82.984H732.638C731.699 78.632 729.737 75.3893 726.75 73.256C723.849 71.1227 720.521 70.056 716.766 70.056C712.329 70.056 708.659 71.208 705.758 73.512C702.857 75.7307 700.937 78.888 699.998 82.984Z" fill="white"/>
<rect x="3" y="16" width="122" height="122" rx="7" stroke="white" stroke-width="6"/>
<path d="M64 31C38.5954 31 18 51.5948 18 76.9992C18 102.406 38.5954 123 64 123C89.4057 123 110 102.406 110 76.9992C110 51.5964 89.4068 31.0022 63.9994 31.0022L64 31ZM85.0953 97.344C84.2692 98.6991 82.5037 99.1237 81.153 98.2981C70.351 91.6961 56.7547 90.2048 40.7426 93.8626C39.1996 94.2163 37.6616 93.249 37.3101 91.7066C36.9569 90.1636 37.9198 88.6256 39.4666 88.274C56.9893 84.268 72.0198 85.9923 84.1445 93.4012C85.4957 94.2306 85.9242 95.9939 85.0947 97.3451L85.0953 97.344ZM90.7256 84.8206C89.6852 86.5086 87.4781 87.0381 85.7924 86.0016C73.4304 78.4026 54.58 76.2016 39.9549 80.641C38.0582 81.2139 36.0549 80.145 35.4792 78.2516C34.908 76.3549 35.9775 74.3554 37.8709 73.7786C54.5768 68.7098 75.3447 71.1651 89.544 79.8907C91.2304 80.9289 91.7632 83.137 90.725 84.8212L90.7256 84.8206ZM91.209 71.7781C76.3812 62.9723 51.923 62.1627 37.7681 66.4587C35.4952 67.1481 33.0914 65.8649 32.4026 63.5919C31.7138 61.3179 32.9958 58.9158 35.2705 58.2247C51.5193 53.2921 78.5312 54.2451 95.6001 64.378C97.6446 65.5914 98.3153 68.2318 97.1035 70.2736C95.895 72.3181 93.2474 72.992 91.2095 71.7781H91.209Z" fill="white"/>
</svg>
